<?xml version="1.0" encoding="UTF-8"?>
<!-- Generator: Adobe Illustrator 15.1.0, SVG Export Plug-In . SVG Version: 6.00 Build 0)  -->
<!DOCTYPE svg PUBLIC "-//W3C//DTD SVG 1.1//EN" "http://www.w3.org/Graphics/SVG/1.1/DTD/svg11.dtd">
<svg version="1.1" id="Layer_1" xmlns="http://www.w3.org/2000/svg" xmlns:xlink="http://www.w3.org/1999/xlink" x="0px" y="0px" width="100px" height="100px" viewBox="-38 -38 100 100" enable-background="new -38 -38 100 100" xml:space="preserve">
<path d="M52,12c0-22.092-17.91-40-40-40c-22.092,0-40,17.908-40,40c0,22.09,17.908,40,40,40C34.09,52,52,34.09,52,12 M62,12  c0,27.617-22.383,50-50,50c-27.615,0-50-22.383-50-50c0-27.615,22.385-50,50-50C39.617-38,62-15.615,62,12 M29.5-8  C33.499-8,37-4.499,37-0.5S33.499,7,29.5,7S22,3.499,22-0.5S25.501-8,29.5-8 M2-0.5C2,3.499-1.501,7-5.5,7S-13,3.499-13-0.5  S-9.499-8-5.5-8S2-4.499,2-0.5 M11.909,35.152C3.16,35.031-4.538,34.825-8.959,29.31l7.198-7.001  c2.194,3.684,7.555,3.091,13.805,3.178c6.25,0.086,11.589,0.828,13.89-2.792l7.001,7.198C28.359,35.281,20.658,35.273,11.909,35.152  z"/>
</svg>