<?xml version="1.0" encoding="UTF-8"?>
<!-- Generator: Adobe Illustrator 15.1.0, SVG Export Plug-In . SVG Version: 6.00 Build 0)  -->
<!DOCTYPE svg PUBLIC "-//W3C//DTD SVG 1.1//EN" "http://www.w3.org/Graphics/SVG/1.1/DTD/svg11.dtd">
<svg version="1.1" id="Layer_1" xmlns="http://www.w3.org/2000/svg" xmlns:xlink="http://www.w3.org/1999/xlink" x="0px" y="0px" width="100px" height="100px" viewBox="-38 -38 100 100" enable-background="new -38 -38 100 100" xml:space="preserve">
<path d="M12-38c-27.615,0-50,22.385-50,50c0,27.617,22.385,50,50,50c27.617,0,50-22.383,50-50C62-15.615,39.617-38,12-38 M12,52  c-22.092,0-40-17.91-40-40c0-22.092,17.908-40,40-40c22.09,0,40,17.908,40,40C52,34.09,34.09,52,12,52 M-5.5,7  C-9.643,7-13,3.641-13-0.5S-9.643-8-5.5-8S2-4.641,2-0.5S-1.357,7-5.5,7 M37-0.5C37,3.641,33.641,7,29.5,7S22,3.641,22-0.5  S25.359-8,29.5-8S37-4.641,37-0.5 M32,22v10H-8V22H32z"/>
</svg>