<?xml version="1.0" encoding="UTF-8"?>
<!-- Generator: Adobe Illustrator 15.1.0, SVG Export Plug-In . SVG Version: 6.00 Build 0)  -->
<!DOCTYPE svg PUBLIC "-//W3C//DTD SVG 1.1//EN" "http://www.w3.org/Graphics/SVG/1.1/DTD/svg11.dtd">
<svg version="1.1" id="Layer_1" xmlns="http://www.w3.org/2000/svg" xmlns:xlink="http://www.w3.org/1999/xlink" x="0px" y="0px" width="100px" height="100px" viewBox="-38 -38 100 100" enable-background="new -38 -38 100 100" xml:space="preserve">
<path d="M52,12c0-22.092-17.91-40-40-40c-22.092,0-40,17.908-40,40c0,22.09,17.908,40,40,40C34.09,52,52,34.09,52,12 M62,12  c0,27.617-22.383,50-50,50c-27.615,0-50-22.383-50-50c0-27.615,22.385-50,50-50C39.617-38,62-15.615,62,12 M2-0.5  C2,3.499-1.501,7-5.5,7S-13,3.499-13-0.5S-9.499-8-5.5-8S2-4.499,2-0.5 M37-0.5C37,3.499,33.499,7,29.5,7S22,3.499,22-0.5  S25.501-8,29.5-8S37-4.499,37-0.5 M12,38.152c-8.75,0-16.45-3.652-20.95-9.053l7.1-7.1c2.251,3.599,7.6,6.152,13.85,6.152  S23.602,25.599,25.848,22l7.1,7.1C28.45,34.5,20.75,38.152,12,38.152z"/>
</svg>