<svg width="77" height="115" viewBox="0 0 77 115" fill="none" xmlns="http://www.w3.org/2000/svg">
<rect x="0.841666" y="0.00198364" width="28.3678" height="28.3044" transform="matrix(0.842939 -0.538009 0.840394 0.541977 1.13053 45.0695)" fill="#D9D9D9" fill-opacity="0.4" stroke="black" stroke-dasharray="2 2"/>
<line x1="26.1914" y1="60.3384" x2="26.1914" y2="82.7413" stroke="black" stroke-dasharray="2 2"/>
<line x1="49.7615" y1="44.6562" x2="49.7615" y2="67.0592" stroke="black" stroke-dasharray="2 2"/>
<line x1="2.24805" y1="44.6562" x2="2.24805" y2="67.0592" stroke="black" stroke-width="2"/>
<mask id="path-5-inside-1_121_488" fill="white">
<path d="M25.4417 50.8174L50.6211 66.3392L26.4277 82.4937L1.24824 66.9718L25.4417 50.8174Z"/>
</mask>
<path d="M26.4277 82.4937L26.0119 82.7713L26.4375 83.0337L26.8533 82.756L26.4277 82.4937ZM0.832418 67.2495L1.73168 67.8038L2.56333 67.2485L1.66406 66.6942L0.832418 67.2495ZM3.53022 68.9125L5.32875 70.0212L6.16039 69.4659L4.36186 68.3572L3.53022 68.9125ZM7.12728 71.1299L8.92581 72.2386L9.75746 71.6833L7.95893 70.5746L7.12728 71.1299ZM10.7243 73.3473L12.5229 74.456L13.3545 73.9007L11.556 72.792L10.7243 73.3473ZM14.3214 75.5647L16.1199 76.6734L16.9516 76.1181L15.1531 75.0094L14.3214 75.5647ZM17.9185 77.7821L19.717 78.8908L20.5487 78.3355L18.7501 77.2268L17.9185 77.7821ZM21.5155 79.9996L23.3141 81.1083L24.1457 80.5529L22.3472 79.4442L21.5155 79.9996ZM25.1126 82.217L26.0119 82.7713L26.8435 82.216L25.9442 81.6616L25.1126 82.217ZM26.8533 82.756L27.7174 82.1791L26.8661 81.6543L26.0021 82.2313L26.8533 82.756ZM29.4455 81.0252L31.1736 79.8713L30.3223 79.3466L28.5942 80.5004L29.4455 81.0252ZM32.9017 78.7174L34.6298 77.5635L33.7785 77.0388L32.0504 78.1927L32.9017 78.7174ZM36.3579 76.4096L38.086 75.2558L37.2347 74.731L35.5066 75.8849L36.3579 76.4096ZM39.8141 74.1019L41.5422 72.948L40.6909 72.4232L38.9628 73.5771L39.8141 74.1019ZM43.2703 71.7941L44.9984 70.6402L44.1471 70.1154L42.419 71.2693L43.2703 71.7941ZM46.7265 69.4863L48.4546 68.3324L47.6033 67.8077L45.8752 68.9616L46.7265 69.4863ZM50.1827 67.1785L51.0467 66.6016L50.1955 66.0768L49.3314 66.6538L50.1827 67.1785ZM26.4277 82.4937L25.596 83.049L26.4473 83.5737L27.2789 83.0184L26.4277 82.4937ZM0.416595 67.5271L1.31586 68.0815L2.97915 66.9709L2.07989 66.4165L0.416595 67.5271ZM3.11439 69.1902L4.91293 70.2989L6.57622 69.1883L4.77768 68.0796L3.11439 69.1902ZM6.71146 71.4076L8.50999 72.5163L10.1733 71.4057L8.37475 70.297L6.71146 71.4076ZM10.3085 73.625L12.1071 74.7337L13.7703 73.6231L11.9718 72.5144L10.3085 73.625ZM13.9056 75.8424L15.7041 76.9511L17.3674 75.8405L15.5689 74.7318L13.9056 75.8424ZM17.5026 78.0598L19.3012 79.1685L20.9645 78.0579L19.1659 76.9492L17.5026 78.0598ZM21.0997 80.2772L22.8982 81.3859L24.5615 80.2753L22.763 79.1666L21.0997 80.2772ZM24.6968 82.4946L25.596 83.049L27.2593 81.9383L26.3601 81.384L24.6968 82.4946ZM27.2789 83.0184L28.143 82.4415L26.4405 81.392L25.5764 81.9689L27.2789 83.0184ZM29.8711 81.2876L31.5992 80.1337L29.8967 79.0842L28.1686 80.2381L29.8711 81.2876ZM33.3273 78.9798L35.0554 77.8259L33.3529 76.7764L31.6248 77.9303L33.3273 78.9798ZM36.7835 76.672L38.5116 75.5181L36.8091 74.4686L35.081 75.6225L36.7835 76.672ZM40.2397 74.3642L41.9678 73.2104L40.2653 72.1608L38.5372 73.3147L40.2397 74.3642ZM43.6959 72.0565L45.424 70.9026L43.7215 69.8531L41.9934 71.007L43.6959 72.0565ZM47.1521 69.7487L48.8802 68.5948L47.1777 67.5453L45.4496 68.6992L47.1521 69.7487ZM50.6083 67.4409L51.4724 66.864L49.7698 65.8145L48.9058 66.3914L50.6083 67.4409Z" fill="black" mask="url(#path-5-inside-1_121_488)"/>
<path d="M1.57056 44.3057L13.547 52.6241" stroke="black" stroke-width="2"/>
<path d="M1.62051 66.5019L12.6913 73.85" stroke="black" stroke-width="2"/>
<path d="M1.24805 44.6172L13.2618 37.1336" stroke="black" stroke-width="2"/>
<rect x="16.6094" y="1.5" width="58.8906" height="112" rx="11.5" stroke="#7C7C7C" stroke-width="3"/>
</svg>
