<?xml version="1.0" encoding="utf-8"?>
<!-- Generator: Adobe Illustrator 15.1.0, SVG Export Plug-In . SVG Version: 6.00 Build 0)  -->
<!DOCTYPE svg PUBLIC "-//W3C//DTD SVG 1.1//EN" "http://www.w3.org/Graphics/SVG/1.1/DTD/svg11.dtd">
<svg version="1.1" id="Layer_1" xmlns="http://www.w3.org/2000/svg" xmlns:xlink="http://www.w3.org/1999/xlink" x="0px" y="0px"
	 width="666.667px" height="633.333px" viewBox="66.667 100 666.667 633.333" enable-background="new 66.667 100 666.667 633.333"
	 xml:space="preserve">
<path d="M366.667,513.799v152.867h66.666V513.799c0-17.533-7.133-34.732-19.533-47.133L347.132,400l86.201-86.201L500,380.467
	c12.4,12.4,29.6,19.533,47.133,19.533h119.535v-66.668H547.132L423.566,209.767c-12.992-13.016-34.078-13.033-47.094-0.04
	c-0.014,0.014-0.025,0.027-0.039,0.04L266.667,319.534c-12.6,12.6-19.533,29.332-19.533,47.133s6.933,34.533,19.533,47.133
	L366.667,513.799z"/>
<circle cx="533.333" cy="166.667" r="66.667"/>
<path d="M600,466.667c-73.533,0-133.332,59.801-133.332,133.334S526.466,733.333,600,733.333S733.333,673.534,733.333,600
	S673.533,466.667,600,466.667z M600,666.667c-36.768,0-66.666-29.9-66.666-66.666c0-36.768,29.898-66.668,66.666-66.668
	s66.668,29.9,66.668,66.668C666.667,636.766,636.767,666.667,600,666.667z M200,733.333c73.533,0,133.333-59.799,133.333-133.332
	S273.533,466.667,200,466.667S66.667,526.467,66.667,600S126.467,733.333,200,733.333z M200,533.333
	c36.767,0,66.667,29.9,66.667,66.668c0,36.766-29.9,66.666-66.667,66.666s-66.667-29.9-66.667-66.666
	C133.333,563.233,163.233,533.333,200,533.333z"/>
</svg>
