<svg width="23" height="24" viewBox="0 0 23 24" fill="none" xmlns="http://www.w3.org/2000/svg">
<path fill-rule="evenodd" clip-rule="evenodd" d="M9.43079 4.01172C9.43079 4.97822 8.64728 5.76172 7.68079 5.76172C6.71429 5.76172 5.93079 4.97822 5.93079 4.01172C5.93079 3.04522 6.71429 2.26172 7.68079 2.26172C8.64728 2.26172 9.43079 3.04522 9.43079 4.01172ZM11.296 5.01172C10.8584 6.59731 9.40555 7.76172 7.68079 7.76172C5.95602 7.76172 4.50322 6.59731 4.06559 5.01172H0.930786V3.01172H4.06559C4.50322 1.42613 5.95602 0.261719 7.68079 0.261719C9.40555 0.261719 10.8584 1.42613 11.296 3.01172L22.9308 3.01172V5.01172L11.296 5.01172ZM12.4198 13.0117L0.930786 13.0117V11.0117L12.4198 11.0117C12.8575 9.42612 14.3103 8.26172 16.035 8.26172C17.7598 8.26172 19.2126 9.42613 19.6502 11.0117H22.9308V13.0117H19.6502C19.2126 14.5973 17.7598 15.7617 16.035 15.7617C14.3103 15.7617 12.8575 14.5973 12.4198 13.0117ZM7.68079 16.2617C5.95602 16.2617 4.50322 17.4261 4.06559 19.0117H0.930786V21.0117H4.06559C4.50322 22.5973 5.95602 23.7617 7.68079 23.7617C9.40555 23.7617 10.8584 22.5973 11.296 21.0117H22.9308V19.0117H11.296C10.8584 17.4261 9.40555 16.2617 7.68079 16.2617ZM7.68079 21.7617C8.64728 21.7617 9.43079 20.9782 9.43079 20.0117C9.43079 19.0452 8.64728 18.2617 7.68079 18.2617C6.71429 18.2617 5.93079 19.0452 5.93079 20.0117C5.93079 20.9782 6.71429 21.7617 7.68079 21.7617ZM17.785 12.0117C17.785 12.9782 17.0015 13.7617 16.035 13.7617C15.0685 13.7617 14.285 12.9782 14.285 12.0117C14.285 11.0452 15.0685 10.2617 16.035 10.2617C17.0015 10.2617 17.785 11.0452 17.785 12.0117Z" fill="black"/>
</svg>
