<?xml version="1.0" encoding="UTF-8"?>
<!-- Generator: Adobe Illustrator 15.1.0, SVG Export Plug-In . SVG Version: 6.00 Build 0)  -->
<!DOCTYPE svg PUBLIC "-//W3C//DTD SVG 1.1//EN" "http://www.w3.org/Graphics/SVG/1.1/DTD/svg11.dtd">
<svg version="1.1" id="Layer_1" xmlns="http://www.w3.org/2000/svg" xmlns:xlink="http://www.w3.org/1999/xlink" x="0px" y="0px" width="194.749px" height="373.248px" viewBox="0 0 194.749 373.248" enable-background="new 0 0 194.749 373.248" xml:space="preserve">
<g>
	<path d="M122.893,65.254H69.571v66.017h53.322V65.254z M90.9,118.322H79.475V77.697H90.9V118.322z M112.482,118.322h-11.426V77.697   h11.426V118.322z"/>
	<polygon points="96.231,31.74 74.649,53.322 117.814,53.322  "/>
	<path d="M166.408,208.871c-10.505-10.505-22.347-18.089-35.411-22.709c12.163-4.717,23.239-12.052,33.104-22.015   c18.821-18.641,28.364-41.491,28.364-67.916c0-26.413-9.535-49.34-28.342-68.146C145.488,9.449,122.646,0,96.231,0   C69.833,0,46.913,9.442,28.063,28.108C9.442,46.913,0,69.833,0,96.231c0,26.412,9.449,49.254,28.086,67.893   c10.598,10.598,22.507,18.25,35.611,22.913c-12.2,4.678-23.353,11.956-33.351,21.856c-18.621,18.804-28.063,41.724-28.063,68.123   c0,26.411,9.449,49.254,28.086,67.893c18.804,18.805,41.731,28.339,68.146,28.339c26.429,0,49.278-9.542,67.87-28.316   c18.82-18.64,28.363-41.49,28.363-67.915C194.749,250.603,185.214,227.676,166.408,208.871z M181.546,277.017   c0,17.605-4.664,32.912-14.185,46.436c-27.315-9.308-47.731-26.893-61.227-52.783v-53.321h13.966v-20.744   c13.825,3.534,26.045,10.677,36.972,21.604C173.54,234.675,181.546,253.911,181.546,277.017z M80.744,177.938   c-3.929-0.689-7.735-1.654-11.426-2.894v-18.635h11.426V177.938z M123.909,174.78c-3.688,1.29-7.493,2.301-11.427,3.03v-21.401   h11.427V174.78z M102.326,179.045c-2.004,0.128-4.028,0.215-6.095,0.215c-1.803,0-3.575-0.066-5.331-0.164v-22.687h11.426V179.045z    M59.126,350.361c-5.952-3.28-11.579-7.411-16.92-12.394c11.769-24.656,27.145-42.026,46.155-52.064   C69.205,307.322,59.466,328.809,59.126,350.361z M13.203,96.231c0-23.116,7.93-42.36,24.196-58.787   c16.472-16.312,35.716-24.242,58.832-24.242c23.106,0,42.26,7.922,58.557,24.219c16.469,16.469,24.475,35.705,24.475,58.81   c0,23.092-7.998,42.239-24.497,58.58c-6.138,6.197-12.681,11.192-19.687,15.015v-26.113H57.637v26.292   c-7.185-3.851-13.905-8.907-20.214-15.216C21.125,138.49,13.203,119.335,13.203,96.231z M39.683,218.229   c9.964-9.868,20.953-16.647,33.19-20.48v19.599h12.949v54.591c-26.692,10.646-45.295,28.046-55.815,52.194   c-9.735-13.675-14.521-29.204-14.521-47.116C15.487,253.9,23.417,234.656,39.683,218.229z"/>
</g>
</svg>