<?xml version="1.0" encoding="utf-8"?>
<!-- Generator: Adobe Illustrator 27.8.1, SVG Export Plug-In . SVG Version: 6.00 Build 0)  -->
<svg version="1.1" id="Layer_1" xmlns="http://www.w3.org/2000/svg" xmlns:xlink="http://www.w3.org/1999/xlink" x="0px" y="0px"
	 viewBox="0 0 448 512" style="enable-background:new 0 0 448 512;" xml:space="preserve">
<path d="M291.1,148.6c0-37.1-30.1-67.1-67.1-67.1s-67.1,30.1-67.1,67.1s30.1,67.1,67.1,67.1S291.1,185.7,291.1,148.6z M116.6,148.6
	c0-59.3,48.1-107.4,107.4-107.4s107.4,48.1,107.4,107.4S283.3,256,224,256S116.6,207.9,116.6,148.6z M77.4,430.6h293.3
	c-7.5-53.1-53.1-94-108.3-94h-76.7C130.6,336.6,84.9,377.4,77.4,430.6L77.4,430.6z M36,445.9c0-82.7,67-149.6,149.6-149.6h76.7
	c82.7,0,149.6,67,149.6,149.6c0,13.8-11.2,24.9-24.9,24.9H60.9C47.2,470.9,36,459.7,36,445.9z"/>
</svg>
