<?xml version="1.0" encoding="utf-8"?>
<!-- Generator: Adobe Illustrator 15.1.0, SVG Export Plug-In . SVG Version: 6.00 Build 0)  -->
<!DOCTYPE svg PUBLIC "-//W3C//DTD SVG 1.1//EN" "http://www.w3.org/Graphics/SVG/1.1/DTD/svg11.dtd">
<svg version="1.1" id="Layer_1" xmlns="http://www.w3.org/2000/svg" xmlns:xlink="http://www.w3.org/1999/xlink" x="0px" y="0px"
	 width="4000px" height="4000px" viewBox="0 0 4000 4000" enable-background="new 0 0 4000 4000" xml:space="preserve">
<g>
	<path fill="#FFFFFF" d="M3414.219,585.781C3036.462,208.041,2534.219,0,2000,0S963.538,208.041,585.781,585.781
		C208.042,963.538,0,1465.781,0,2000s208.042,1036.462,585.781,1414.219C963.538,3791.958,1465.781,4000,2000,4000
		s1036.462-208.042,1414.219-585.781C3791.959,3036.462,4000,2534.219,4000,2000S3791.959,963.538,3414.219,585.781z M2000,3752.577
		c-966.375,0-1752.577-786.202-1752.577-1752.577S1033.625,247.423,2000,247.423S3752.577,1033.625,3752.577,2000
		S2966.375,3752.577,2000,3752.577z"/>
	<polygon fill="#FFFFFF" points="1493.295,2775.876 2836.602,2000 1493.295,1224.124 	"/>
</g>
</svg>
