<svg width="30" height="30" viewBox="0 0 30 30" fill="none" xmlns="http://www.w3.org/2000/svg">
<path fill-rule="evenodd" clip-rule="evenodd" d="M13.4745 6.62027L2.89703 17.1978L12.0894 26.3901L22.6669 15.8127L21.2887 7.99844L13.4745 6.62027ZM12.7965 4.46983L0.0686035 17.1978L12.0894 29.2186L24.8173 16.4906L23.0151 6.27206L12.7965 4.46983Z" fill="black"/>
<path fill-rule="evenodd" clip-rule="evenodd" d="M16.6856 14.0157C17.0761 13.6252 17.0761 12.992 16.6856 12.6015C16.2951 12.211 15.6619 12.211 15.2714 12.6015C14.8808 12.992 14.8808 13.6252 15.2714 14.0157C15.6619 14.4062 16.2951 14.4062 16.6856 14.0157ZM18.0998 15.4299C19.2714 14.2583 19.2714 12.3588 18.0998 11.1873C16.9282 10.0157 15.0287 10.0157 13.8572 11.1873C12.6856 12.3588 12.6856 14.2583 13.8572 15.4299C15.0287 16.6015 16.9282 16.6015 18.0998 15.4299Z" fill="black"/>
</svg>
