<svg width="28" height="25" viewBox="0 0 28 25" fill="none" xmlns="http://www.w3.org/2000/svg">
<path fill-rule="evenodd" clip-rule="evenodd" d="M21.9562 2.03006C19.52 0.537161 16.6311 -0.0374842 13.809 0.409485C10.9869 0.856455 8.41697 2.2957 6.56135 4.46836C5.03827 6.25165 4.07849 8.43297 3.78339 10.7375L2.14163 9.0957L0.727417 10.5099L4.93452 14.717L9.14163 10.5099L7.72742 9.0957L5.75806 11.0651C5.99278 9.11754 6.79673 7.27229 8.08216 5.76726C9.62851 3.95671 11.7702 2.75734 14.1219 2.38486C16.4736 2.01239 18.881 2.49126 20.9112 3.73534C22.9414 4.97942 24.461 6.90707 25.1968 9.17156C25.9326 11.4361 25.8362 13.8888 24.925 16.0886C24.0138 18.2883 22.3476 20.0908 20.2261 21.1718C18.1046 22.2527 15.667 22.5412 13.3518 21.9854C11.0365 21.4296 8.99558 20.0659 7.59605 18.1396L5.97801 19.3151C7.65746 21.6267 10.1066 23.2631 12.8849 23.9301C15.6632 24.5972 18.5883 24.2509 21.1341 22.9538C23.6799 21.6566 25.6794 19.4937 26.7728 16.8539C27.8662 14.2142 27.9818 11.2709 27.0989 8.55353C26.216 5.83614 24.3924 3.52296 21.9562 2.03006ZM14.6862 6.26172H16.6862V12.2617H21.6862V14.2617H14.6862V6.26172Z" fill="black"/>
</svg>
