<?xml version="1.0" encoding="utf-8"?>
<!-- Generator: Adobe Illustrator 15.1.0, SVG Export Plug-In . SVG Version: 6.00 Build 0)  -->
<!DOCTYPE svg PUBLIC "-//W3C//DTD SVG 1.1//EN" "http://www.w3.org/Graphics/SVG/1.1/DTD/svg11.dtd">
<svg version="1.1" id="Layer_1" xmlns="http://www.w3.org/2000/svg" xmlns:xlink="http://www.w3.org/1999/xlink" x="0px" y="0px"
	 width="700.061px" height="566.71px" viewBox="66.606 133.333 700.061 566.71"
	 enable-background="new 66.606 133.333 700.061 566.71" xml:space="preserve">
<g>
	<path d="M666.667,300v216.667c0,82.842-67.157,150-150,150s-150-67.158-150-150V283.333c0-46.023-37.31-83.333-83.334-83.333
		C237.31,200,200,237.31,200,283.333v222.334c52.09,18.409,79.393,75.56,60.982,127.649c-18.409,52.089-75.56,79.393-127.649,60.982
		c-52.089-18.409-79.392-75.56-60.982-127.649c10.071-28.496,32.486-50.911,60.982-60.982V283.333c0-82.843,67.157-150,150-150
		s150,67.157,150,150v233.334c0,46.023,37.31,83.333,83.334,83.333C562.69,600,600,562.69,600,516.667V300H500l133.334-166.667
		L766.667,300H666.667z"/>
</g>
</svg>
