<?xml version="1.0" encoding="utf-8"?>
<!-- Generator: Adobe Illustrator 15.1.0, SVG Export Plug-In . SVG Version: 6.00 Build 0)  -->
<!DOCTYPE svg PUBLIC "-//W3C//DTD SVG 1.1//EN" "http://www.w3.org/Graphics/SVG/1.1/DTD/svg11.dtd">
<svg version="1.1" id="Layer_1" xmlns="http://www.w3.org/2000/svg" xmlns:xlink="http://www.w3.org/1999/xlink" x="0px" y="0px"
	 width="473.734px" height="650.201px" viewBox="136.832 89.666 473.734 650.201"
	 enable-background="new 136.832 89.666 473.734 650.201" xml:space="preserve">
<circle fill="#FFFFFF" cx="421.333" cy="156.333" r="66.667"/>
<path fill="#FFFFFF" d="M465.934,409c8.166,12.267,20.366,21.566,34.366,26.233l89.167,29.732l21.1-63.2L521.4,372.033
	l-55.435-83.167c-6.45-9.628-15.28-17.425-25.634-22.633l-47.8-23.9c-14.222-7.109-30.521-8.872-45.935-4.966l-106.433,26.567
	c-18.905,4.71-34.808,17.446-43.533,34.866l-59.8,119.634l59.634,29.833l59.801-119.633l74.1-18.533l-60.133,278.2l-122.467,84.233
	l37.767,54.934l122.5-84.267c14.033-9.667,23.767-24.167,27.333-40.834l17.233-79.601l83.899,62.935l30.833,154.166l65.367-13.101
	l-30.833-154.232c-3.238-16.066-12.28-30.378-25.4-40.2L404.1,478.066l21.567-129.5L465.934,409z"/>
</svg>
